%TF.GenerationSoftware,KiCad,Pcbnew,(7.99.0-267-g8440d7258b)*%
%TF.CreationDate,2024-08-03T18:55:56-07:00*%
%TF.ProjectId,379,3337392e-6b69-4636-9164-5f7063625858,rev?*%
%TF.SameCoordinates,Original*%
%TF.FileFunction,Profile,NP*%
%FSLAX46Y46*%
G04 Gerber Fmt 4.6, Leading zero omitted, Abs format (unit mm)*
G04 Created by KiCad (PCBNEW (7.99.0-267-g8440d7258b)) date 2024-08-03 18:55:56*
%MOMM*%
%LPD*%
G01*
G04 APERTURE LIST*
%TA.AperFunction,Profile*%
%ADD10C,0.200000*%
%TD*%
G04 APERTURE END LIST*
D10*
X23376000Y-112550000D02*
X23393037Y-112679410D01*
X352156438Y-22868186D02*
X352032461Y-22921506D01*
X147021426Y-113761985D02*
G75*
G03*
X146063837Y-113050000I-957626J-288015D01*
G01*
X152813163Y-113050000D02*
X194236841Y-113050000D01*
X23876000Y-22850000D02*
X23746590Y-22867037D01*
X23746590Y-22867037D02*
X23626000Y-22916987D01*
X346999742Y-112893962D02*
X347078507Y-112784375D01*
X346770552Y-22868222D02*
X346636841Y-22850000D01*
X261321426Y-113761985D02*
G75*
G03*
X260363837Y-113050000I-957626J-288015D01*
G01*
X42285993Y-112784375D02*
X42364785Y-112893937D01*
X365921513Y-112800000D02*
X365971463Y-112679410D01*
X42364785Y-112893937D02*
X42469980Y-112978463D01*
X180477258Y-23006038D02*
X180398493Y-23115625D01*
X37437242Y-112893962D02*
X37516007Y-112784375D01*
X37332039Y-112978494D02*
X37437242Y-112893962D01*
X175628507Y-23115625D02*
X175549715Y-23006063D01*
X365921513Y-23100000D02*
X365842053Y-22996447D01*
X194236841Y-113050000D02*
X194370562Y-113031814D01*
X352290159Y-22850000D02*
X352156438Y-22868186D01*
X351848493Y-112784375D02*
X351927285Y-112893937D01*
X37437215Y-23006063D02*
X37332020Y-22921537D01*
X351848493Y-112784375D02*
G75*
G03*
X347078507Y-112784375I-2384993J-1265624D01*
G01*
X23376000Y-23350000D02*
X23376000Y-112550000D01*
X347078507Y-23115625D02*
G75*
G03*
X351848493Y-23115625I2384993J1265624D01*
G01*
X365971463Y-23220590D02*
X365921513Y-23100000D01*
X175320552Y-22868222D02*
X175186841Y-22850000D01*
X365488500Y-22850000D02*
X352290159Y-22850000D01*
X194494539Y-112978494D02*
X194599742Y-112893962D01*
X37074341Y-113050000D02*
X37208062Y-113031814D01*
X365617910Y-22867037D02*
X365488500Y-22850000D01*
X365738500Y-112983013D02*
X365842053Y-112903553D01*
X37208062Y-113031814D02*
X37332039Y-112978494D01*
X175549715Y-23006063D02*
X175444520Y-22921537D01*
X23746590Y-113032963D02*
X23876000Y-113050000D01*
X37332020Y-22921537D02*
X37208052Y-22868222D01*
X23393037Y-112679410D02*
X23442987Y-112800000D01*
X351927258Y-23006038D02*
X351848493Y-23115625D01*
X199632480Y-112978463D02*
X199756448Y-113031778D01*
X199756448Y-113031778D02*
X199890159Y-113050000D01*
X42469980Y-112978463D02*
X42593948Y-113031778D01*
X346770562Y-113031814D02*
X346894539Y-112978494D01*
X199448493Y-112784375D02*
G75*
G03*
X194678507Y-112784375I-2384993J-1265624D01*
G01*
X23393037Y-23220590D02*
X23376000Y-23350000D01*
X42285993Y-112784375D02*
G75*
G03*
X37516007Y-112784375I-2384993J-1265624D01*
G01*
X175628507Y-23115625D02*
G75*
G03*
X180398493Y-23115625I2384993J1265624D01*
G01*
X23626000Y-112983013D02*
X23746590Y-113032963D01*
X23442987Y-23100000D02*
X23393037Y-23220590D01*
X365488500Y-113050000D02*
X365617910Y-113032963D01*
X365971463Y-112679410D02*
X365988500Y-112550000D01*
X180840159Y-22850000D02*
X180706438Y-22868186D01*
X42469961Y-22921506D02*
X42364758Y-23006038D01*
X346894520Y-22921537D02*
X346770552Y-22868222D01*
X365617910Y-113032963D02*
X365738500Y-112983013D01*
X37516007Y-23115625D02*
G75*
G03*
X42285993Y-23115625I2384993J1265624D01*
G01*
X180582461Y-22921506D02*
X180477258Y-23006038D01*
X42727659Y-113050000D02*
X146063837Y-113050000D01*
X199448493Y-112784375D02*
X199527285Y-112893937D01*
X199527285Y-112893937D02*
X199632480Y-112978463D01*
X42593948Y-113031778D02*
X42727659Y-113050000D01*
X365842053Y-112903553D02*
X365921513Y-112800000D01*
X346999715Y-23006063D02*
X346894520Y-22921537D01*
X346636841Y-113050000D02*
X346770562Y-113031814D01*
X365842053Y-22996447D02*
X365738500Y-22916987D01*
X180706438Y-22868186D02*
X180582461Y-22921506D01*
X346636841Y-22850000D02*
X180840159Y-22850000D01*
X23522447Y-22996447D02*
X23442987Y-23100000D01*
X37208052Y-22868222D02*
X37074341Y-22850000D01*
X23522447Y-112903553D02*
X23626000Y-112983013D01*
X365988500Y-112550000D02*
X365988500Y-23350000D01*
X175186841Y-22850000D02*
X42727659Y-22850000D01*
X346894539Y-112978494D02*
X346999742Y-112893962D01*
X194370562Y-113031814D02*
X194494539Y-112978494D01*
X194599742Y-112893962D02*
X194678507Y-112784375D01*
X261321461Y-113761975D02*
G75*
G03*
X266155539Y-113761975I2417039J726975D01*
G01*
X147021461Y-113761975D02*
G75*
G03*
X151855539Y-113761975I2417039J726975D01*
G01*
X42364758Y-23006038D02*
X42285993Y-23115625D01*
X152813163Y-113049965D02*
G75*
G03*
X151855541Y-113761975I37J-1000035D01*
G01*
X42593938Y-22868186D02*
X42469961Y-22921506D01*
X42727659Y-22850000D02*
X42593938Y-22868186D01*
X23626000Y-22916987D02*
X23522447Y-22996447D01*
X199890159Y-113050000D02*
X260363837Y-113050000D01*
X352290159Y-113050000D02*
X365488500Y-113050000D01*
X352032461Y-22921506D02*
X351927258Y-23006038D01*
X352032480Y-112978463D02*
X352156448Y-113031778D01*
X267113163Y-113050000D02*
X346636841Y-113050000D01*
X352156448Y-113031778D02*
X352290159Y-113050000D01*
X37516007Y-23115625D02*
X37437215Y-23006063D01*
X351927285Y-112893937D02*
X352032480Y-112978463D01*
X23876000Y-113050000D02*
X37074341Y-113050000D01*
X267113163Y-113049965D02*
G75*
G03*
X266155541Y-113761975I37J-1000035D01*
G01*
X175444520Y-22921537D02*
X175320552Y-22868222D01*
X365738500Y-22916987D02*
X365617910Y-22867037D01*
X37074341Y-22850000D02*
X23876000Y-22850000D01*
X23442987Y-112800000D02*
X23522447Y-112903553D01*
X365988500Y-23350000D02*
X365971463Y-23220590D01*
X347078507Y-23115625D02*
X346999715Y-23006063D01*
M02*
